<svg xmlns="http://www.w3.org/2000/svg" xmlns:svg="http://www.w3.org/2000/svg" version="1.1" viewBox="0 0 627.66 581.96">
 <title id="title207">Nintendo 64 (1996)</title>
 <metadata id="metadata235">image/svg+xmlNintendo 64 (1996)</metadata>
 <g class="layer">
  <title>Layer 1</title>
  <path d="m191.28,483.04l-67.23,-145.37l4.3,173.23l62.93,-27.86zm270.79,-92.55l4.06,-168.31l66.68,-20.26l0,280.8l-66.68,28.18l0,0l-97.98,-120.63l0,161.95l-70.75,29.74l-2.87,-292.6l73.62,-23.58l93.92,124.71zm-113.36,-131.16l14.43,-10.62l0,-111.59l-71.91,19.69l-48.37,102.83l54.85,-15.9l51,15.59z" fill="#021daa" id="path183" stroke-width="3.13px"/>
  <path d="m231.66,136.81l-36.32,65.11l31.31,63.86l15.51,-4.9l60.49,-107.76l-70.99,-16.31zm-5.01,128.97l-2.92,134.93l-92.53,-174.39l-69.53,-24.4l0,280.81l66.68,28.17l0,-149.33l98.3,190.65l70.75,29.74l0,-293.99l-70.75,-22.19zm172.8,-63.86l-50.52,57.16l19.22,6.7l97.98,140.25l0,-186.38l-66.68,-17.73z" fill="#07942d" id="path185" stroke-width="3.13px"/>
  <path d="m368.15,452.67l20.03,28.18l77.95,30.05l-97.98,-128.04l0,69.81zm-244.68,-234.88l71.87,-15.87l31.31,63.86l0,146.82l-103.18,-194.81z" fill="#ff2920" id="path193" stroke-width="3.13px"/>
  <path d="m297.4,111.45l-65.74,25.36l65.74,25.67l65.74,-25.36l0,0l-65.74,-25.67zm-168.73,64.8l66.67,25.67l-66.67,25.67l-67,-25.67l67,-25.67zm337.46,0l66.68,25.67l-66.68,25.67l-66.68,-25.67l66.68,-25.67zm-239.48,89.53l71.06,-26.92l70.44,26.92l-70.75,26.92l-70.75,-26.92z" fill="#ffbd01" id="path201" stroke-width="3.13px"/>
  <path d="m496.5,18.79c-22.54,0 -33.5,14.71 -33.5,36c0,21.28 11.27,36 33.5,36c22.54,0 33.49,-14.72 33.49,-36c0,-21.29 -11.27,-36 -33.49,-36zm-496.5,1.88l0,68.24l20.66,0l0,-39.45l0.32,0l13.77,39.45l30.68,0l0,-68.24l-20.66,0l0,39.13l-0.31,0l-13.78,-39.13l-30.68,0zm77.95,0l0,68.24l25.67,0l0,-68.24l-25.67,0zm37.88,0l0,68.24l20.66,0l0,-39.45l0.31,0l13.78,39.45l30.68,0l0,-68.24l-20.66,0l0,39.13l-0.32,0l-13.77,-39.13l-30.68,0zm72.94,0l0,18.47l16.28,0l0,49.77l25.67,0l0,-49.77l16.28,0l0,-18.47l-58.23,0zm66.05,0l0,68.24l51.34,0l0,-17.84l-26.29,0l0,-7.52l23.48,0l0,-17.53l-23.48,0l0,-7.2l25.67,0l0,-18.15l-50.72,0zm60.42,0l0,68.24l20.66,0l0,-39.45l0.32,0l13.77,39.45l30.68,0l0,-68.24l-20.66,0l0,39.13l-0.32,0l-13.77,-39.13l-30.68,0zm76.7,0l0,68.24l31.93,0c19.72,0 32.56,-12.84 32.56,-33.5c0,-20.03 -8.14,-34.74 -34.13,-34.74l-30.36,0zm104.56,15.02c4.07,0 6.88,2.51 6.88,18.79c0,16.9 -2.81,18.78 -6.88,18.78c-4.07,0 -6.89,-2.19 -6.89,-18.78c0,-16.6 2.82,-18.79 6.89,-18.79zm-79.52,0.32l2.51,0c4.07,0 6.88,1.25 8.45,4.06c1.56,2.82 1.88,8.14 1.88,14.72c0,6.57 -0.32,11.89 -1.88,14.71c-1.57,2.82 -4.38,4.07 -8.45,4.07l-2.51,0l0,-0.31l0,-37.25z" fill="#021daa" id="path203" stroke-width="3.13px"/>
  <path d="m570.69,0c-8.77,0.32 -15.96,2.82 -21.6,8.14c-5.95,5.33 -9.39,14.09 -9.39,24.11c0,12.52 6.57,24.1 21.91,24.1c11.58,0 20.04,-8.76 20.04,-20.03c0,-11.59 -7.83,-17.85 -16.28,-17.85c-4.38,0 -7.52,0.94 -10.33,3.45l-0.31,0c1.56,-5.32 5.63,-9.71 16.59,-10.33l4.38,0l0,-11.59l-5.01,0zm33.18,0.94l-18.15,32.56l0,9.71l22.85,0l0,12.52l13.46,0l0,-12.21l5.63,0l0,-11.27l-5.63,0l0,-31.31l-18.16,0zm4.7,10.65l0.31,0c0,3.75 -0.31,7.51 -0.31,10.95l0,9.4l-9.39,0l0,-0.32l4.38,-9.08c1.88,-3.75 3.44,-7.2 5.01,-10.95zm-47.9,17.53c4.7,0 6.58,4.38 6.58,8.14c0,4.69 -2.19,8.13 -5.64,8.13c-4.69,0 -6.89,-4.69 -7.2,-9.07c0,-1.57 0,-2.51 0.32,-3.13c0.93,-2.19 3.12,-4.07 5.94,-4.07z" fill="#ff2920" id="path223" stroke-width="3.13px"/>
 </g>
</svg>