<svg id="svg4237" sodipodi:version="0.32" inkscape:version="1.1.2 (b8e25be833, 2022-02-05)" version="1.0" sodipodi:docname="PlayStation_Portable.svg" xmlns:inkscape="http://www.inkscape.org/namespaces/inkscape" xmlns:sodipodi="http://sodipodi.sourceforge.net/DTD/sodipodi-0.dtd" xmlns="http://www.w3.org/2000/svg" xmlns:svg="http://www.w3.org/2000/svg" xmlns:rdf="http://www.w3.org/1999/02/22-rdf-syntax-ns#" xmlns:cc="http://creativecommons.org/ns#" xmlns:dc="http://purl.org/dc/elements/1.1/" viewBox="-0.02 -0.02 939.93 306.83">
  <title id="title523">PlayStation Portable (2004)</title>
  <defs id="defs4239">
    <clipPath id="clp2" style="clip-rule:nonzero">
      <path id="path5264" d="m 234.2,0.1382 5645.1,0 0,7918.8618 -5645.1,0 0,-7918.8618 z" inkscape:connector-curvature="0"/>
    </clipPath>
    <clipPath id="clp3" style="clip-rule:nonzero">
      <path id="path5273" d="m 234.06,0 5645.24,0 0,7919 -5645.24,0 0,-7919 z" inkscape:connector-curvature="0"/>
    </clipPath>
    <clipPath id="clp4" style="clip-rule:nonzero">
      <path id="path5282" d="m 437.5,278.39 590.5,0 0,178.55 -590.5,0 0,-178.55 z" inkscape:connector-curvature="0"/>
    </clipPath>
    <clipPath id="clp5" style="clip-rule:nonzero">
      <path id="path5291" d="m 234.06,0 5645.24,0 0,7919 -5645.24,0 0,-7919 z" inkscape:connector-curvature="0"/>
    </clipPath>
    <clipPath id="clp6" style="clip-rule:nonzero">
      <path id="path5330" d="m 437.5,278.39 590.5,0 0,178.55 -590.5,0 0,-178.55 z" inkscape:connector-curvature="0"/>
    </clipPath>
    <clipPath id="clp7" style="clip-rule:nonzero">
      <path id="path5341" d="m 234.06,0 5645.24,0 0,7919 -5645.24,0 0,-7919 z" inkscape:connector-curvature="0"/>
    </clipPath>
    <clipPath id="clp8" style="clip-rule:nonzero">
      <path id="path5418" d="m 4026.3,282.71 699.8,0 0,170.38 -699.8,0 0,-170.38 z" inkscape:connector-curvature="0"/>
    </clipPath>
    <clipPath id="clp9" style="clip-rule:nonzero">
      <path id="path5427" d="m 234.06,0 5645.24,0 0,7919 -5645.24,0 0,-7919 z" inkscape:connector-curvature="0"/>
    </clipPath>
    <clipPath id="clp10" style="clip-rule:nonzero">
      <path id="path5476" d="m 2444.9,428.65 0,-121.96 506,0 0,121.96" inkscape:connector-curvature="0"/>
    </clipPath>
    <clipPath id="clp11" style="clip-rule:nonzero">
      <path id="path5485" d="m 234.06,0 5645.24,0 0,7919 -5645.24,0 0,-7919 z" inkscape:connector-curvature="0"/>
    </clipPath>
    <clipPath id="clp12" style="clip-rule:nonzero">
      <path id="path5496" d="m 2444.9,428.65 0,-121.96 506,0 0,121.96" inkscape:connector-curvature="0"/>
    </clipPath>
    <clipPath id="clp13" style="clip-rule:nonzero">
      <path id="path5505" d="m 234.06,0 5645.24,0 0,7919 -5645.24,0 0,-7919 z" inkscape:connector-curvature="0"/>
    </clipPath>
    <clipPath id="clp14" style="clip-rule:nonzero">
      <path id="path5514" d="m 2444.9,428.65 0,-121.96 506,0 0,121.96" inkscape:connector-curvature="0"/>
    </clipPath>
    <clipPath id="clp15" style="clip-rule:nonzero">
      <path id="path5523" d="m 234.06,0 5645.24,0 0,7919 -5645.24,0 0,-7919 z" inkscape:connector-curvature="0"/>
    </clipPath>
    <clipPath id="clipPath5767" style="clip-rule:nonzero">
      <path id="path5769" d="m 234.2,0.1382 5645.1,0 0,7918.8618 -5645.1,0 0,-7918.8618 z" inkscape:connector-curvature="0"/>
    </clipPath>
    <clipPath id="clipPath5775" style="clip-rule:nonzero">
      <path id="path5777" d="m 234.06,0 5645.24,0 0,7919 -5645.24,0 0,-7919 z" inkscape:connector-curvature="0"/>
    </clipPath>
    <clipPath id="clipPath5783" style="clip-rule:nonzero">
      <path id="path5785" d="m 437.5,278.39 590.5,0 0,178.55 -590.5,0 0,-178.55 z" inkscape:connector-curvature="0"/>
    </clipPath>
    <clipPath id="clipPath5791" style="clip-rule:nonzero">
      <path id="path5793" d="m 234.06,0 5645.24,0 0,7919 -5645.24,0 0,-7919 z" inkscape:connector-curvature="0"/>
    </clipPath>
    <clipPath id="clipPath5814" style="clip-rule:nonzero">
      <path id="path5816" d="m 437.5,278.39 590.5,0 0,178.55 -590.5,0 0,-178.55 z" inkscape:connector-curvature="0"/>
    </clipPath>
    <clipPath id="clipPath5823" style="clip-rule:nonzero">
      <path id="path5825" d="m 234.06,0 5645.24,0 0,7919 -5645.24,0 0,-7919 z" inkscape:connector-curvature="0"/>
    </clipPath>
    <clipPath id="clipPath5865" style="clip-rule:nonzero">
      <path id="path5867" d="m 4026.3,282.71 699.8,0 0,170.38 -699.8,0 0,-170.38 z" inkscape:connector-curvature="0"/>
    </clipPath>
    <clipPath id="clipPath5873" style="clip-rule:nonzero">
      <path id="path5875" d="m 234.06,0 5645.24,0 0,7919 -5645.24,0 0,-7919 z" inkscape:connector-curvature="0"/>
    </clipPath>
    <clipPath id="clipPath5901" style="clip-rule:nonzero">
      <path id="path5903" d="m 2444.9,428.65 0,-121.96 506,0 0,121.96" inkscape:connector-curvature="0"/>
    </clipPath>
    <clipPath id="clipPath5909" style="clip-rule:nonzero">
      <path id="path5911" d="m 234.06,0 5645.24,0 0,7919 -5645.24,0 0,-7919 z" inkscape:connector-curvature="0"/>
    </clipPath>
    <clipPath id="clipPath5918" style="clip-rule:nonzero">
      <path id="path5920" d="m 2444.9,428.65 0,-121.96 506,0 0,121.96" inkscape:connector-curvature="0"/>
    </clipPath>
    <clipPath id="clipPath5926" style="clip-rule:nonzero">
      <path id="path5928" d="m 234.06,0 5645.24,0 0,7919 -5645.24,0 0,-7919 z" inkscape:connector-curvature="0"/>
    </clipPath>
    <clipPath id="clipPath5934" style="clip-rule:nonzero">
      <path id="path5936" d="m 2444.9,428.65 0,-121.96 506,0 0,121.96" inkscape:connector-curvature="0"/>
    </clipPath>
    <clipPath id="clipPath5942" style="clip-rule:nonzero">
      <path id="path5944" d="m 234.06,0 5645.24,0 0,7919 -5645.24,0 0,-7919 z" inkscape:connector-curvature="0"/>
    </clipPath>
    <clipPath id="clipPath14221" style="clip-rule:nonzero">
      <path d="m 234.06,0 5645.24,0 0,7919 -5645.24,0 0,-7919 z" id="path14223" inkscape:connector-curvature="0"/>
    </clipPath>
    <clipPath id="clipPath14217" style="clip-rule:nonzero">
      <path d="m 2444.9,428.65 0,-121.96 506,0 0,121.96" id="path14219" inkscape:connector-curvature="0"/>
    </clipPath>
    <clipPath id="clipPath14213" style="clip-rule:nonzero">
      <path d="m 234.06,0 5645.24,0 0,7919 -5645.24,0 0,-7919 z" id="path14215" inkscape:connector-curvature="0"/>
    </clipPath>
    <clipPath id="clipPath14209" style="clip-rule:nonzero">
      <path d="m 2444.9,428.65 0,-121.96 506,0 0,121.96" id="path14211" inkscape:connector-curvature="0"/>
    </clipPath>
    <clipPath id="clipPath14205" style="clip-rule:nonzero">
      <path d="m 234.06,0 5645.24,0 0,7919 -5645.24,0 0,-7919 z" id="path14207" inkscape:connector-curvature="0"/>
    </clipPath>
    <clipPath id="clipPath14201" style="clip-rule:nonzero">
      <path d="m 2444.9,428.65 0,-121.96 506,0 0,121.96" id="path14203" inkscape:connector-curvature="0"/>
    </clipPath>
    <clipPath id="clipPath14197" style="clip-rule:nonzero">
      <path d="m 234.06,0 5645.24,0 0,7919 -5645.24,0 0,-7919 z" id="path14199" inkscape:connector-curvature="0"/>
    </clipPath>
    <clipPath id="clipPath14193" style="clip-rule:nonzero">
      <path d="m 4026.3,282.71 699.8,0 0,170.38 -699.8,0 0,-170.38 z" id="path14195" inkscape:connector-curvature="0"/>
    </clipPath>
    <clipPath id="clipPath14189" style="clip-rule:nonzero">
      <path d="m 234.06,0 5645.24,0 0,7919 -5645.24,0 0,-7919 z" id="path14191" inkscape:connector-curvature="0"/>
    </clipPath>
    <clipPath id="clipPath14185" style="clip-rule:nonzero">
      <path d="m 437.5,278.39 590.5,0 0,178.55 -590.5,0 0,-178.55 z" id="path14187" inkscape:connector-curvature="0"/>
    </clipPath>
    <clipPath id="clipPath14181" style="clip-rule:nonzero">
      <path d="m 234.06,0 5645.24,0 0,7919 -5645.24,0 0,-7919 z" id="path14183" inkscape:connector-curvature="0"/>
    </clipPath>
    <clipPath id="clipPath14177" style="clip-rule:nonzero">
      <path d="m 437.5,278.39 590.5,0 0,178.55 -590.5,0 0,-178.55 z" id="path14179" inkscape:connector-curvature="0"/>
    </clipPath>
    <clipPath id="clipPath14173" style="clip-rule:nonzero">
      <path d="m 234.06,0 5645.24,0 0,7919 -5645.24,0 0,-7919 z" id="path14175" inkscape:connector-curvature="0"/>
    </clipPath>
    <clipPath id="clipPath14169" style="clip-rule:nonzero">
      <path d="m 234.2,0.1382 5645.1,0 0,7918.8618 -5645.1,0 0,-7918.8618 z" id="path14171" inkscape:connector-curvature="0"/>
    </clipPath>
    <clipPath id="clipPath14165" style="clip-rule:nonzero">
      <path d="m 234.06,0 5645.24,0 0,7919 -5645.24,0 0,-7919 z" id="path14167" inkscape:connector-curvature="0"/>
    </clipPath>
    <clipPath id="clipPath14161" style="clip-rule:nonzero">
      <path d="m 2444.9,428.65 0,-121.96 506,0 0,121.96" id="path14163" inkscape:connector-curvature="0"/>
    </clipPath>
    <clipPath id="clipPath14157" style="clip-rule:nonzero">
      <path d="m 234.06,0 5645.24,0 0,7919 -5645.24,0 0,-7919 z" id="path14159" inkscape:connector-curvature="0"/>
    </clipPath>
    <clipPath id="clipPath14153" style="clip-rule:nonzero">
      <path d="m 2444.9,428.65 0,-121.96 506,0 0,121.96" id="path14155" inkscape:connector-curvature="0"/>
    </clipPath>
    <clipPath id="clipPath14149" style="clip-rule:nonzero">
      <path d="m 234.06,0 5645.24,0 0,7919 -5645.24,0 0,-7919 z" id="path14151" inkscape:connector-curvature="0"/>
    </clipPath>
    <clipPath id="clipPath14145" style="clip-rule:nonzero">
      <path d="m 2444.9,428.65 0,-121.96 506,0 0,121.96" id="path14147" inkscape:connector-curvature="0"/>
    </clipPath>
    <clipPath id="clipPath14141" style="clip-rule:nonzero">
      <path d="m 234.06,0 5645.24,0 0,7919 -5645.24,0 0,-7919 z" id="path14143" inkscape:connector-curvature="0"/>
    </clipPath>
    <clipPath id="clipPath14137" style="clip-rule:nonzero">
      <path d="m 4026.3,282.71 699.8,0 0,170.38 -699.8,0 0,-170.38 z" id="path14139" inkscape:connector-curvature="0"/>
    </clipPath>
    <clipPath id="clipPath14133" style="clip-rule:nonzero">
      <path d="m 234.06,0 5645.24,0 0,7919 -5645.24,0 0,-7919 z" id="path14135" inkscape:connector-curvature="0"/>
    </clipPath>
    <clipPath id="clipPath14129" style="clip-rule:nonzero">
      <path d="m 437.5,278.39 590.5,0 0,178.55 -590.5,0 0,-178.55 z" id="path14131" inkscape:connector-curvature="0"/>
    </clipPath>
    <clipPath id="clipPath14125" style="clip-rule:nonzero">
      <path d="m 234.06,0 5645.24,0 0,7919 -5645.24,0 0,-7919 z" id="path14127" inkscape:connector-curvature="0"/>
    </clipPath>
    <clipPath id="clipPath14121" style="clip-rule:nonzero">
      <path d="m 437.5,278.39 590.5,0 0,178.55 -590.5,0 0,-178.55 z" id="path14123" inkscape:connector-curvature="0"/>
    </clipPath>
    <clipPath id="clipPath14117" style="clip-rule:nonzero">
      <path d="m 234.06,0 5645.24,0 0,7919 -5645.24,0 0,-7919 z" id="path14119" inkscape:connector-curvature="0"/>
    </clipPath>
    <clipPath id="clipPath14113" style="clip-rule:nonzero">
      <path d="m 234.2,0.1382 5645.1,0 0,7918.8618 -5645.1,0 0,-7918.8618 z" id="path14115" inkscape:connector-curvature="0"/>
    </clipPath>
  </defs>
  <sodipodi:namedview id="base" pagecolor="#ffffff" bordercolor="#666666" borderopacity="1.0" inkscape:pageopacity="0.0" inkscape:pageshadow="2" inkscape:zoom="0.49497475" inkscape:cx="396.98995" inkscape:cy="57.578695" inkscape:document-units="px" inkscape:current-layer="layer1" inkscape:window-width="1920" inkscape:window-height="1001" inkscape:window-x="-9" inkscape:window-y="-9" showgrid="false" inkscape:window-maximized="1" inkscape:pagecheckerboard="0"/>
  <metadata id="metadata4242">
    <rdf:RDF>
      <cc:Work rdf:about="">
        <dc:format>image/svg+xml</dc:format>
        <dc:type rdf:resource="http://purl.org/dc/dcmitype/StillImage"/>
        <dc:title>PlayStation Portable (2004)</dc:title>
      </cc:Work>
    </rdf:RDF>
  </metadata>
  <g inkscape:label="Ebene 1" inkscape:groupmode="layer" id="layer1" transform="translate(2.322326,-414.98777)">
    <path style="fill: rgb(0, 0, 0); fill-rule: nonzero; stroke: none; --darkreader-inline-fill: #e8e6e3; --darkreader-inline-stroke: none;" d="m 168.84457,681.75037 c 8.83954,0 14.14333,-1.80014 14.14333,-10.20568 0,-6.21983 -3.85742,-9.54679 -12.69696,-9.54679 l -12.21476,0 0,19.75247 10.76839,0 z m -15.42919,25.95627 0,-49.71074 18.16135,0 c 12.85754,0 16.23276,6.42882 16.23276,13.88628 0,11.10578 -9.96465,13.87013 -19.12573,13.87013 l -10.60758,0 0,21.95433 -4.6608,0" class="ps02" id="path6905" inkscape:connector-curvature="0" data-darkreader-inline-fill="" data-darkreader-inline-stroke=""/>
    <path style="fill: rgb(0, 0, 0); fill-rule: nonzero; stroke: none; --darkreader-inline-fill: #e8e6e3; --darkreader-inline-stroke: none;" d="m 194.07753,707.70664 4.01802,0 0,-49.71074 -4.01802,0 0,49.71074 z" class="ps02" id="path6907" inkscape:connector-curvature="0" data-darkreader-inline-fill="" data-darkreader-inline-stroke=""/>
    <path style="fill: rgb(0, 0, 0); fill-rule: nonzero; stroke: none; --darkreader-inline-fill: #e8e6e3; --darkreader-inline-stroke: none;" d="m 231.84666,688.91847 c -3.53575,1.44653 -7.23236,1.73572 -10.76817,2.00902 -6.26811,0.48216 -10.12532,2.76444 -10.12532,7.58596 0,4.3716 3.85721,6.42887 7.71448,6.42887 6.58958,0 13.17901,-3.18232 13.17901,-10.43083 l 0,-5.59302 z m -7.07163,-2.05727 c 1.60725,-0.14456 4.17874,-0.56244 5.46453,-1.18925 1.44637,-0.61078 1.6071,-2.47511 1.6071,-3.7127 0,-4.21085 -2.57143,-7.2484 -9.00027,-7.2484 -5.62518,0 -9.64313,1.86437 -10.44672,8.06813 l -4.17873,0 c 0.64285,-8.42177 6.91089,-11.81288 14.78618,-11.81288 7.23244,0 12.85756,2.84465 12.85756,11.12176 l 0,19.46315 c 0,3.24661 0.96432,4.00205 4.33947,2.76447 l 0,3.24651 c -0.48207,0.20894 -1.92864,0.69114 -3.21443,0.69114 -0.64279,0 -1.12504,-0.0644 -1.76784,-0.20901 -2.89295,-0.40168 -3.37522,-2.82866 -3.37522,-5.31982 -3.37502,3.87345 -8.19668,5.94667 -13.33974,5.94667 -6.26797,0 -11.8933,-3.39117 -11.8933,-10.28612 0,-5.99483 4.17874,-9.65928 12.53623,-10.76817 l 5.62518,-0.75548" class="ps02" id="path6909" inkscape:connector-curvature="0" data-darkreader-inline-fill="" data-darkreader-inline-stroke=""/>
    <path style="fill: rgb(0, 0, 0); fill-rule: nonzero; stroke: none; --darkreader-inline-fill: #e8e6e3; --darkreader-inline-stroke: none;" d="m 246.15079,717.43015 c 1.12506,0.20897 2.25011,0.434 3.37515,0.434 4.82161,0 5.46439,-6.78236 7.0717,-9.88431 l -13.98259,-36.03346 4.6608,0 11.5719,30.72967 11.41104,-30.72967 4.5002,0 -13.33981,35.27806 c -3.37515,8.96819 -5.62513,14.56133 -11.41111,14.56133 -1.44645,0 -2.73222,-0.20901 -3.85728,-0.4822 l 0,-3.87342" class="ps02" id="path6911" inkscape:connector-curvature="0" data-darkreader-inline-fill="" data-darkreader-inline-stroke=""/>
    <path style="fill: rgb(0, 0, 0); fill-rule: nonzero; stroke: none; --darkreader-inline-fill: #e8e6e3; --darkreader-inline-stroke: none;" d="m 284.56285,692.85611 c 0.80359,8.90389 6.58964,12.15047 14.30412,12.15047 8.83954,0 12.53623,-4.82159 12.53623,-10.28612 0,-15.39699 -30.21551,-5.17516 -30.21551,-24.70271 0,-6.91091 5.62533,-13.32368 16.87569,-13.32368 11.08972,0 16.71483,6.75026 16.55412,14.85062 l -4.33934,0 c 0,-7.60215 -5.94666,-10.84874 -12.21478,-10.84874 -9.64326,0 -13.01827,5.8664 -12.21468,10.97723 2.08937,12.82559 30.37609,3.58416 30.37609,22.83831 0,9.12889 -6.75037,14.49696 -18.16141,14.49696 -10.44684,0 -18.16133,-5.36807 -18.16133,-16.15234 l 4.6608,0" class="ps02" id="path6913" inkscape:connector-curvature="0" data-darkreader-inline-fill="" data-darkreader-inline-stroke=""/>
    <path style="fill: rgb(0, 0, 0); fill-rule: nonzero; stroke: none; --darkreader-inline-fill: #e8e6e3; --darkreader-inline-stroke: none;" d="m 337.76128,707.83529 c -0.96445,0.20883 -2.73237,0.83568 -4.82171,0.83568 -4.01795,0 -6.26806,-1.80001 -6.26806,-7.11996 l 0,-26.16518 -5.14293,0 0,-3.43945 5.14293,0 0,-9.94848 4.17868,0 0,9.94848 6.58963,0 0,3.43945 -6.58963,0 0,24.5098 c 0,3.53591 0,5.04669 3.53594,5.04669 1.12507,0 2.2501,-0.20899 3.37515,-0.4822 l 0,3.37517" class="ps02" id="path6915" inkscape:connector-curvature="0" data-darkreader-inline-fill="" data-darkreader-inline-stroke=""/>
    <path style="fill: rgb(0, 0, 0); fill-rule: nonzero; stroke: none; --darkreader-inline-fill: #e8e6e3; --darkreader-inline-stroke: none;" d="m 368.78018,688.91847 c -3.53589,1.44653 -7.07164,1.73572 -10.60758,2.00902 -6.26799,0.48216 -10.12531,2.76444 -10.12531,7.58596 0,4.3716 3.85732,6.42887 7.71461,6.42887 6.58942,0 13.01828,-3.18232 13.01828,-10.43083 l 0,-5.59302 z m -6.9109,-2.05727 c 1.44637,-0.14456 4.018,-0.56244 5.46437,-1.18925 1.28579,-0.61078 1.44653,-2.47511 1.44653,-3.7127 0,-4.21085 -2.41082,-7.2484 -8.83954,-7.2484 -5.78597,0 -9.64327,1.86437 -10.44686,8.06813 l -4.17875,0 c 0.64288,-8.42177 6.91097,-11.81288 14.62561,-11.81288 7.23231,0 13.01829,2.84465 13.01829,11.12176 l 0,19.46315 c 0,3.24661 0.80359,4.00205 4.3394,2.76447 l 0,3.24651 c -0.64285,0.20894 -2.08938,0.69114 -3.2143,0.69114 -0.643,0 -1.28585,-0.0644 -1.92879,-0.20901 -2.73221,-0.40168 -3.21425,-2.82866 -3.21425,-5.31982 -3.53596,3.87345 -8.19676,5.94667 -13.33983,5.94667 -6.26809,0 -12.05396,-3.39117 -12.05396,-10.28612 0,-5.99483 4.17869,-9.65928 12.53604,-10.76817 l 5.78604,-0.75548" class="ps02" id="path6917" inkscape:connector-curvature="0" data-darkreader-inline-fill="" data-darkreader-inline-stroke=""/>
    <path style="fill: rgb(0, 0, 0); fill-rule: nonzero; stroke: none; --darkreader-inline-fill: #e8e6e3; --darkreader-inline-stroke: none;" d="m 397.38843,707.83529 c -0.96445,0.20883 -2.73237,0.83568 -4.82173,0.83568 -4.01801,0 -6.2681,-1.80001 -6.2681,-7.11996 l 0,-26.16518 -4.98233,0 0,-3.43945 4.98233,0 0,-9.94848 4.17872,0 0,9.94848 6.58958,0 0,3.43945 -6.58958,0 0,24.5098 c 0,3.53591 0,5.04669 3.53589,5.04669 1.12512,0 2.25019,-0.20899 3.37522,-0.4822 l 0,3.37517" class="ps02" id="path6919" inkscape:connector-curvature="0" data-darkreader-inline-fill="" data-darkreader-inline-stroke=""/>
    <path style="fill: rgb(0, 0, 0); fill-rule: nonzero; stroke: none; --darkreader-inline-fill: #e8e6e3; --darkreader-inline-stroke: none;" d="m 409.76372,707.70664 -4.01794,0 0,-35.76026 4.01794,0 0,35.76026 z m -4.33934,-43.57127 0,-6.13947 4.66088,0 0,6.13947 -4.66088,0" class="ps02" id="path6921" inkscape:connector-curvature="0" data-darkreader-inline-fill="" data-darkreader-inline-stroke=""/>
    <path style="fill: rgb(0, 0, 0); fill-rule: nonzero; stroke: none; --darkreader-inline-fill: #e8e6e3; --darkreader-inline-stroke: none;" d="m 434.19323,674.71085 c -8.67885,0 -12.05402,7.37701 -12.05402,15.10766 0,8.90382 4.17876,15.12381 12.05402,15.12381 8.67895,0 12.2147,-7.45751 12.2147,-15.12381 0,-8.4217 -3.37516,-15.10766 -12.2147,-15.10766 z m -16.55422,15.10766 c 0,-10.41468 5.62525,-18.85241 16.55422,-18.85241 11.25039,0 16.7149,8.35737 16.7149,18.85241 0,11.33081 -6.58958,18.85246 -16.7149,18.85246 -9.00033,-0.14465 -16.55422,-6.34848 -16.55422,-18.85246" class="ps02" id="path6923" inkscape:connector-curvature="0" data-darkreader-inline-fill="" data-darkreader-inline-stroke=""/>
    <path style="fill: rgb(0, 0, 0); fill-rule: nonzero; stroke: none; --darkreader-inline-fill: #e8e6e3; --darkreader-inline-stroke: none;" d="m 460.87279,707.70664 -4.17874,0 0,-35.76026 4.17874,0 0,4.96634 c 3.21442,-3.51982 6.58945,-5.94662 11.41106,-5.94662 4.5002,0 8.35746,1.38212 10.92902,5.11077 1.76792,2.57164 1.92864,5.25553 1.92864,8.21291 l 0,23.41686 -4.17872,0 0,-23.3365 c 0,-6.41275 -2.73225,-9.65929 -9.32183,-9.65929 -5.14304,0 -8.67879,3.31081 -9.96458,6.95917 -0.80359,2.28226 -0.80359,4.29128 -0.80359,6.78234 l 0,19.25428" class="ps02" id="path6925" inkscape:connector-curvature="0" data-darkreader-inline-fill="" data-darkreader-inline-stroke=""/>
    <path style="fill: rgb(0, 0, 0); fill-rule: nonzero; stroke: none; --darkreader-inline-fill: #e8e6e3; --darkreader-inline-stroke: none;" d="m 536.4112,681.75037 c 8.83953,0 14.30403,-1.80014 14.30403,-10.20568 0,-6.21983 -4.01791,-9.54679 -12.85754,-9.54679 l -12.21469,0 0,19.75247 10.7682,0 z m -15.4292,25.95627 0,-49.71074 18.16136,0 c 12.85775,0 16.23275,6.42882 16.23275,13.88628 0,11.10578 -9.80393,13.87013 -19.12565,13.87013 l -10.60746,0 0,21.95433 -4.661,0" class="ps02" id="path6929" inkscape:connector-curvature="0" data-darkreader-inline-fill="" data-darkreader-inline-stroke=""/>
    <path style="fill: rgb(0, 0, 0); fill-rule: nonzero; stroke: none; --darkreader-inline-fill: #e8e6e3; --darkreader-inline-stroke: none;" d="m 573.85892,674.71085 c -8.67882,0 -12.21469,7.37701 -12.21469,15.10766 0,8.90382 4.33946,15.12381 12.21469,15.12381 8.67886,0 12.21477,-7.45751 12.21477,-15.12381 -0.16075,-8.4217 -3.37517,-15.10766 -12.21477,-15.10766 z m -16.55418,15.10766 c 0,-10.41468 5.46454,-18.85241 16.55418,-18.85241 11.25043,0 16.55422,8.35737 16.55422,18.85241 0,11.33081 -6.58958,18.85246 -16.55422,18.85246 -9.16102,-0.14465 -16.55418,-6.34848 -16.55418,-18.85246" class="ps02" id="path6931" inkscape:connector-curvature="0" data-darkreader-inline-fill="" data-darkreader-inline-stroke=""/>
    <path style="fill: rgb(0, 0, 0); fill-rule: nonzero; stroke: none; --darkreader-inline-fill: #e8e6e3; --darkreader-inline-stroke: none;" d="m 600.69914,707.70664 -4.17863,0 0,-35.76026 4.17863,0 0,6.70213 0.16071,0 c 2.25012,-5.7378 5.62527,-7.68241 11.57191,-7.68241 l 0,4.50009 c -9.32179,-0.20885 -11.73262,6.68596 -11.73262,14.6898 l 0,17.55065" class="ps02" id="path6933" inkscape:connector-curvature="0" data-darkreader-inline-fill="" data-darkreader-inline-stroke=""/>
    <path style="fill: rgb(0, 0, 0); fill-rule: nonzero; stroke: none; --darkreader-inline-fill: #e8e6e3; --darkreader-inline-stroke: none;" d="m 635.57543,707.83529 c -0.96431,0.20883 -2.73223,0.83568 -4.66092,0.83568 -4.17862,0 -6.42879,-1.80001 -6.42879,-7.11996 l 0,-26.16518 -4.98224,0 0,-3.43945 4.98224,0 0,-9.94848 4.17874,0 0,9.94848 6.75025,0 0,3.43945 -6.75025,0 0,24.5098 c 0,3.53591 0.16081,5.04669 3.53584,5.04669 1.12504,0 2.41082,-0.20899 3.37513,-0.4822 l 0,3.37517" class="ps02" id="path6935" inkscape:connector-curvature="0" data-darkreader-inline-fill="" data-darkreader-inline-stroke=""/>
    <path style="fill: rgb(0, 0, 0); fill-rule: nonzero; stroke: none; --darkreader-inline-fill: #e8e6e3; --darkreader-inline-stroke: none;" d="m 665.30854,688.91847 c -3.53575,1.44653 -7.07162,1.73572 -10.60746,2.00902 -6.26808,0.48216 -10.12532,2.76444 -10.12532,7.58596 0,4.3716 3.85724,6.42887 7.7145,6.42887 6.58958,0 13.01828,-3.18232 13.01828,-10.43083 l 0,-5.59302 z m -6.9109,-2.05727 c 1.44653,-0.14456 4.018,-0.56244 5.46453,-1.18925 1.28578,-0.61078 1.44637,-2.47511 1.44637,-3.7127 0,-4.21085 -2.4107,-7.2484 -8.83954,-7.2484 -5.78592,0 -9.64311,1.86437 -10.4467,8.06813 l -4.17875,0 c 0.64284,-8.42177 6.91091,-11.81288 14.62545,-11.81288 7.23243,0 13.01829,2.84465 13.01829,11.12176 l 0,19.46315 c 0,3.24661 0.80371,4.00205 4.33945,2.76447 l 0,3.24651 c -0.64278,0.20894 -2.08937,0.69114 -3.21441,0.69114 -0.64278,0 -1.28579,-0.0644 -1.92863,-0.20901 -2.73216,-0.40168 -3.21442,-2.82866 -3.21442,-5.31982 -3.53575,3.87345 -8.19669,5.94667 -13.3396,5.94667 -6.26813,0 -12.05418,-3.39117 -12.05418,-10.28612 0,-5.99483 4.17875,-9.65928 12.53622,-10.76817 l 5.78592,-0.75548" class="ps02" id="path6937" inkscape:connector-curvature="0" data-darkreader-inline-fill="" data-darkreader-inline-stroke=""/>
    <path style="fill: rgb(0, 0, 0); fill-rule: nonzero; stroke: none; --darkreader-inline-fill: #e8e6e3; --darkreader-inline-stroke: none;" d="m 698.09548,704.94232 c 6.91097,0 12.05401,-5.04669 12.21475,-14.01483 0.32146,-8.96824 -3.69654,-16.21664 -12.21475,-16.21664 -7.55375,0 -12.05397,6.89481 -12.05397,14.96308 0,8.64672 4.17874,15.26839 12.05397,15.26839 z m -12.05397,2.76432 -4.17872,0 0,-49.71074 4.17872,0 0,19.67211 c 2.57144,-4.33933 7.71449,-6.70191 12.69682,-6.70191 10.92907,0 15.91136,8.91993 15.91136,18.93277 0,10.54325 -4.5002,18.7721 -16.07195,18.7721 -4.661,0 -9.96479,-2.55547 -12.53623,-7.24845 l 0,0 0,6.28412" class="ps02" id="path6939" inkscape:connector-curvature="0" data-darkreader-inline-fill="" data-darkreader-inline-stroke=""/>
    <path style="fill: rgb(0, 0, 0); fill-rule: nonzero; stroke: none; --darkreader-inline-fill: #e8e6e3; --darkreader-inline-stroke: none;" d="m 723.81078,707.70664 4.17859,0 0,-49.71074 -4.17859,0 0,49.71074 z" class="ps02" id="path6941" inkscape:connector-curvature="0" data-darkreader-inline-fill="" data-darkreader-inline-stroke=""/>
    <path style="fill: rgb(0, 0, 0); fill-rule: nonzero; stroke: none; --darkreader-inline-fill: #e8e6e3; --darkreader-inline-stroke: none;" d="m 763.99073,687.32729 c 0,-6.95922 -3.85727,-12.61644 -11.25043,-12.61644 -7.39315,0 -11.25039,5.86623 -12.05397,12.61644 l 23.3044,0 z m -23.3044,3.47155 c 0,7.71461 4.17874,14.14348 12.05397,14.14348 5.30379,0 9.64313,-2.97347 10.76823,-8.21285 l 4.66095,0 c -2.08938,6.75017 -6.26813,11.9415 -15.42918,11.9415 -11.41117,0 -16.39343,-8.14849 -16.39343,-18.70781 0,-10.43077 6.10738,-18.99706 16.39343,-18.99706 9.80393,0 15.7505,6.99129 15.7505,19.83274 l -27.80447,0" class="ps02" id="path6943" inkscape:connector-curvature="0" data-darkreader-inline-fill="" data-darkreader-inline-stroke=""/>
    <path style="fill: rgb(0, 0, 0); fill-rule: nonzero; stroke: none; --darkreader-inline-fill: #e8e6e3; --darkreader-inline-stroke: none;" d="m -2.3223259,414.98729 292.8318259,0 0,86.83702 -281.259923,0 0,75.2652 -11.5719029,0 0,-86.83708 281.2600559,0 0,-63.69336 -281.2600559,0 0,-11.57178" class="ps02" id="path6945" inkscape:connector-curvature="0" data-darkreader-inline-fill="" data-darkreader-inline-stroke=""/>
    <path style="fill: rgb(0, 0, 0); fill-rule: nonzero; stroke: none; --darkreader-inline-fill: #e8e6e3; --darkreader-inline-stroke: none;" d="m 656.30826,501.82431 0,75.2652 -11.57175,0 0,-86.83708 281.26005,0 0,-63.69336 -281.26005,0 0,-11.57178 292.83181,0 0,86.83702 -281.26006,0" class="ps02" id="path6947" inkscape:connector-curvature="0" data-darkreader-inline-fill="" data-darkreader-inline-stroke=""/>
    <path style="fill: rgb(0, 0, 0); fill-rule: nonzero; stroke: none; --darkreader-inline-fill: #e8e6e3; --darkreader-inline-stroke: none;" d="m 439.81851,414.98729 0,150.53032 -149.30901,0 0,11.5719 161.52361,0 0,-150.53044 149.30894,0 0,-11.57178 -161.52354,0" class="ps02" id="path6949" inkscape:connector-curvature="0" data-darkreader-inline-fill="" data-darkreader-inline-stroke=""/>
  </g>
</svg>